<svg xmlns="http://www.w3.org/2000/svg" xmlns:xlink="http://www.w3.org/1999/xlink" width="69.9974365234375" height="31.99530029296875" viewBox="0 0 69.9974365234375 31.99530029296875" fill="none"><g opacity="1" transform="translate(0 0)  rotate(0)"><path id="路径 1" fill-rule="evenodd" style="fill:#ED801C" opacity="1" d="M31.0872 8.08328L32.5408 9.55712L33.9943 8.08328L32.5408 6.60944L31.0872 8.08328Z"></path><path id="路径 2" fill-rule="evenodd" style="fill:#ED801C" opacity="1" d="M32.4901 4.27102L33.9436 5.74486L35.3971 4.27102L33.9436 2.79718L32.4901 4.27102Z"></path><path id="路径 3" fill-rule="evenodd" style="fill:#ED801C" opacity="1" d="M28.869 5.41104L30.3225 6.88488L31.776 5.41104L30.3225 3.93719L28.869 5.41104Z"></path><path id="路径 4" fill-rule="evenodd" style="fill:#ED801C" opacity="1" d="M25.207 6.42831L26.6605 7.90215L28.1141 6.42831L26.6605 4.95447L25.207 6.42831Z"></path><path id="路径 5" fill-rule="evenodd" style="fill:#ED801C" opacity="1" d="M35.0015 1.47384L36.4551 2.94768L37.9086 1.47384L36.4551 0L35.0015 1.47384Z"></path><path id="路径 6" fill-rule="evenodd" style="fill:#ED801C" opacity="1" d="M26.4986 2.87692L27.9521 4.35076L29.4057 2.87692L27.9521 1.40308L26.4986 2.87692Z"></path><path id="路径 7" fill-rule="evenodd" style="fill:#ED801C" opacity="1" d="M22.0471 8.5657L23.5006 10.0395L24.9541 8.5657L23.5006 7.09186L22.0471 8.5657Z"></path><path id="路径 8" fill-rule="evenodd" style="fill:#ED801C" opacity="1" d="M22.2513 3.8152L23.6768 5.26053L25.1022 3.8152L23.6768 2.36987L22.2513 3.8152Z"></path><path id="路径 9" fill-rule="evenodd" style="fill:#ED801C" opacity="1" d="M35.998 6.79879L38.3223 9.15549L40.6465 6.79878L38.3223 4.44208L35.998 6.79879Z"></path><path id="路径 10" fill-rule="evenodd" style="fill:#ED801C" opacity="1" d="M33.0839 11.2004L35.703 13.8561L38.3221 11.2004L35.703 8.54468L33.0839 11.2004Z"></path><path id="路径 11" fill-rule="evenodd" style="fill:#ED801C" opacity="1" d="M25.6454 11.2578L28.5525 14.2055L31.4596 11.2578L28.5525 8.31012L25.6454 11.2578Z"></path><path id="路径 12" fill-rule="evenodd" style="fill:#ED801C" opacity="1" d="M61.6675 31.7453C66.5275 30.8153 69.9975 26.5453 69.9975 21.4153C69.9975 16.4853 66.5875 12.1653 61.8875 11.1553L61.6675 11.1153L61.5875 10.9053C59.9375 6.78527 56.5975 3.60527 52.4475 2.19527C48.2875 0.785273 43.7275 1.27527 39.9675 3.55527L41.3275 5.72527C44.4775 3.84527 48.2675 3.45527 51.7175 4.65527C55.1675 5.85527 57.9375 8.52527 59.2775 11.9653C59.6175 12.8353 60.3675 13.4753 61.2775 13.6553C64.8675 14.3753 67.4675 17.6453 67.4675 21.4153C67.4675 25.1053 65.0975 28.2153 61.6675 29.1053L61.6675 31.7453Z"></path><path id="路径 13" fill-rule="evenodd" style="fill:#000000" opacity="1" d="M12.9699,23.8089v1.04h-1.8699v4.91c0.02,0.4 -0.04,0.8 -0.17,1.17c-0.11,0.26 -0.32,0.47 -0.59,0.56c-0.40004,0.12 -0.82004,0.17 -1.24004,0.15h-1.91999l-0.18,-1.04h1.75999c0.27,0.02 0.53,-0.01 0.79,-0.07c0.15,-0.04 0.28,-0.14 0.34,-0.29c0.07,-0.21 0.1,-0.44 0.09,-0.66v-4.73h-9.97996v-1.04zM0.74,22.6489c1.53999,-0.28 2.65999,-0.58 3.36998,-0.88c0.71,-0.3 1.18,-0.69 1.4,-1.17h-4.82998v-1.04h5.08998c0.01,-0.17 0.02,-0.4 0.03,-0.67c0.01,-0.27 0.01,-0.51 0.01,-0.72h1.17999c0,0.41 -0.02,0.88 -0.05,1.39h5.33993v1.04h-5.51993l-0.1,0.25l0.61,0.21c2.38999,0.87 3.86003,1.42 4.41003,1.66l-0.52,0.91c-0.66,-0.31 -1.94004,-0.81 -3.83003,-1.53l-1.19,-0.45c-0.40999,0.44 -1.00999,0.81 -1.79999,1.11c-0.79,0.3 -1.87999,0.57 -3.25998,0.81zM1.43999,26.0689h6.26998v3.82h-6.26998zM6.59997,28.8789v-1.82h-4.03998v1.82z"></path><path id="路径 14" fill-rule="evenodd" style="fill:#000000" opacity="1" d="M14.9658,23.7953l-0.22,-1.01c0.8,-1.08 1.68,-2.68 2.65,-4.8l0.92,0.42c-0.94,1.98 -1.7,3.39 -2.26,4.24l1.8,-0.23c0.27,-0.46 0.52,-0.94 0.75,-1.43l0.94,0.5c-0.73,1.4 -1.78,3.06 -3.14,4.97l2.61,-0.41l0.03,1.07l-3.82,0.59l-0.21,-1.1c0.81,-1 1.55,-2.05 2.23,-3.15zM14.7758,29.6053l4.37,-0.73l0.04,1.17l-4.25,0.72zM23.6958,28.7153c0.71,0.38 2.07,1.11 4.09,2.2l-0.52,0.96c-1.41,-0.84 -2.73,-1.61 -3.97,-2.3c-0.36,0.54 -0.86,0.99 -1.43,1.29c-0.64,0.36 -1.57,0.74 -2.78,1.13l-0.42,-1.03c1.21,-0.34 2.1,-0.66 2.65,-0.96c0.55,-0.3 0.94,-0.62 1.14,-0.99c0.21,-0.36 0.38,-0.9 0.5,-1.61c0.03,-0.18 0.05,-0.41 0.07,-0.68l1,0.03l-0.08,0.68c-0.05,0.44 -0.13,0.86 -0.25,1.28zM23.9458,22.2553v1.09h3.89v0.89h-8.66v-0.89h3.7v-1.09h-2.93v-0.86h2.93v-1.01h-3.34v-0.86h3.34v-1.42h1.07v1.42h3.49v0.86h-3.49v1.01h3.09v0.86zM26.7158,25.3453v4h-1.03v-3.04h-4.47v3.08h-1.03v-4.04z"></path><path id="路径 15" fill-rule="evenodd" style="fill:#000000" opacity="1" d="M36.0441,24.3658c-1.66,2.68 -2.95,4.5 -3.86,5.47l7.33,-0.59c-0.87,-1.36 -1.49,-2.31 -1.88,-2.86l0.94,-0.58c0.43,0.6 0.99,1.43 1.7,2.51c0.71,1.07 1.33,2.04 1.85,2.89l-0.96,0.71c-0.47,-0.77 -0.81,-1.32 -1.01,-1.65l-9.16,0.79l-0.41,-1.22c0.77,-0.76 1.47,-1.59 2.1,-2.47c0.7,-0.96 1.35,-1.96 1.95,-3h-4.83v-1.14h12.81v1.14zM30.9641,19.0458h10.48v1.13h-10.48z"></path><path id="路径 16" fill-rule="evenodd" style="fill:#000000" opacity="1" d="M49.2744,27.1087l-1.44,-1.36v6.17h-1.0201v-6.26c-0.53,1.31 -1.21,2.55 -2.03,3.69l-0.46,-1.23c0.5,-0.68 0.94,-1.4 1.32,-2.16c0.41,-0.79 0.76,-1.61 1.06,-2.45h-2.08v-1.07h2.18v-2.1l-0.34,0.05c-0.81,0.12 -1.36,0.19 -1.63,0.22l-0.09,-1.04c0.7,-0.08 1.53,-0.2 2.5001,-0.37c0.97,-0.16 1.77,-0.33 2.4,-0.49l0.19,1.03c-0.4,0.11 -1.07,0.25 -2,0.42v2.28h2.06v1.07h-2.06v0.92c0.79,0.65 1.5,1.28 2.14,1.89zM57.6444,26.5087l0.09,1.11l-2.08,0.23v4.01h-1.12v-3.88l-4.93,0.55l-0.07,-1.13l5,-0.55v-8.71h1.12v8.58zM52.7444,26.1587l-1.17,-1.03l-1.17,-1.02l-0.33,-0.28l0.7,-0.85c1.32,1.1 2.22,1.86 2.69,2.29zM53.1444,22.5287c-1.07,-1.01 -1.92,-1.78 -2.57,-2.31l0.7,-0.81c0.48,0.39 1.34,1.14 2.59,2.26z"></path></g></svg>